<svg width="52" height="52" viewBox="0 0 52 52" fill="none" xmlns="http://www.w3.org/2000/svg">
	<g clip-path="url(#clip0_1_110)">
		<path fill-rule="evenodd" clip-rule="evenodd" d="M25.8064 0C11.5539 0 0 11.5539 0 25.8065C0 33.4413 3.31542 40.3016 8.58506 45.0265L3.77034 48.7203C2.54761 49.6584 3.21098 51.6129 4.7521 51.6129H24.2566C24.3702 51.6129 24.4782 51.6031 24.5808 51.5844C24.9869 51.6032 25.3956 51.6129 25.8064 51.6129C40.059 51.6129 51.6129 40.059 51.6129 25.8065C51.6129 11.5539 40.059 0 25.8064 0Z" fill="#375FFF" />
		<path d="M14.5161 29.0323C16.2977 29.0323 17.7419 27.5881 17.7419 25.8065C17.7419 24.0249 16.2977 22.5807 14.5161 22.5807C12.7345 22.5807 11.2903 24.0249 11.2903 25.8065C11.2903 27.5881 12.7345 29.0323 14.5161 29.0323Z" fill="#ffffff" />
		<path d="M25.8065 29.0323C27.5881 29.0323 29.0323 27.5881 29.0323 25.8065C29.0323 24.0249 27.5881 22.5807 25.8065 22.5807C24.0249 22.5807 22.5807 24.0249 22.5807 25.8065C22.5807 27.5881 24.0249 29.0323 25.8065 29.0323Z" fill="#ffffff" />
		<path d="M37.0968 29.0323C38.8783 29.0323 40.3226 27.5881 40.3226 25.8065C40.3226 24.0249 38.8783 22.5807 37.0968 22.5807C35.3152 22.5807 33.871 24.0249 33.871 25.8065C33.871 27.5881 35.3152 29.0323 37.0968 29.0323Z" fill="#ffffff" />
	</g>
	<defs>
		<clipPath id="clip0_1_110">
			<rect width="52" height="52" fill="white" />
		</clipPath>
	</defs>
</svg>
